<svg xmlns="http://www.w3.org/2000/svg" width="256" height="256" preserveAspectRatio="none" style="display: block;" version="1.1" viewBox="0 0 1024 1024">
  <defs>
    <pattern id="_pd5sph48" patternUnits="userSpaceOnUse" width="409.6" height="409.6" patternTransform="rotate(-30)">
      <text x="204.8" y="204.8" font-family="Arial,Helvetica,sans-serif" font-size="34.13333333333333" fill="rgba(0,0,0,0.045)" font-weight="600" text-anchor="middle" letter-spacing="3">VECTOSOLVE</text>
    </pattern>
    <linearGradient id="e" x1="387.93" x2="375.696" y1="132.79" y2="114.899" gradientUnits="userSpaceOnUse">
      <stop class="stop0" offset="0" stop-color="rgb(160,156,156)" stop-opacity="1"/>
      <stop class="stop1" offset="1" stop-color="rgb(200,196,196)" stop-opacity="1"/>
    </linearGradient>
    <linearGradient id="d" x1="423.965" x2="430.701" y1="707.282" y2="607.894" gradientUnits="userSpaceOnUse">
      <stop class="stop0" offset="0" stop-color="rgb(63,159,79)" stop-opacity="1"/>
      <stop class="stop1" offset="1" stop-color="rgb(114,208,104)" stop-opacity="1"/>
    </linearGradient>
    <linearGradient id="c" x1="825.91" x2="513.981" y1="256.338" y2="286.436" gradientUnits="userSpaceOnUse">
      <stop class="stop0" offset="0" stop-color="rgb(66,158,82)" stop-opacity="1"/>
      <stop class="stop1" offset="1" stop-color="rgb(121,210,107)" stop-opacity="1"/>
    </linearGradient>
    <linearGradient id="b" x1="448.487" x2="451.278" y1="584.656" y2="535.218" gradientUnits="userSpaceOnUse">
      <stop class="stop0" offset="0" stop-color="rgb(161,158,159)" stop-opacity="1"/>
      <stop class="stop1" offset="1" stop-color="rgb(200,199,198)" stop-opacity="1"/>
    </linearGradient>
    <linearGradient id="a" x1="578.746" x2="576.525" y1="607.632" y2="537.869" gradientUnits="userSpaceOnUse">
      <stop class="stop0" offset="0" stop-color="rgb(141,140,139)" stop-opacity="1"/>
      <stop class="stop1" offset="1" stop-color="rgb(171,170,170)" stop-opacity="1"/>
    </linearGradient>
  </defs>
  <path fill="rgb(5,111,51)" d="M414.46 49.718c2.086 1.941 7.991 26.471 8.652 30.856 4.854 32.232-5.437 46.193-22.436 70.561 8.333 2.818 37.726 11.887 42.589 16.446 3.384 8.676-5.052 12.897-4.076 14.833 4.846 9.615 36.298 17.589 33.833 31.795-1.466 3.442-4.556 4.867-7.772 6.9 11.458 10.169 17.129 20.874 25.425 33.78l-9.503 5.525c-.741 10.985-.35 17.409 1.266 28.201 22.592-17.684 20.925-31.605 20.533-57.96-.652-43.792-27.422-74.741-51.798-108.408 26.324 1.225 43.325 4.591 68.923 9.89-6.84-11.451-23.993-32.187-33.223-42.413 77.712 6.524 139.188 19.425 208.455 55.618 134.442 70.248 175.856 183.584 169.674 327.482-19.122-15.531-36.881-32.588-56.754-47.157-6.093-4.466-12.145-9.072-18.149-13.659-17.823 4.916-21.829 8.518-38.418 15.464a1786 1786 0 0 1-21.66-26.291c-.482 14.2-.396 47.128.947 60.681a43 43 0 0 1 4.488 1.88c6.802 3.269 14.233 8.811 20.294 13.32 56.425 41.98 83.1 117.153 50.691 182.472-10.999 19.562-24.14 32.319-42.919 44.711-36.046 23.787-80.434 18.46-122.266 18.361l-107.792-.003c-113.245-.187-232.627 2.07-345.419-.551 4.549-8.039 8.859-17.684 13.394-26.07a396 396 0 0 1 24.995-39.508c6.837-9.541 17.865-17.55 23.843-27.374 3.446-5.662-13.952-18.626-17.616-22.852-10.876-12.54-19.787-26.697-26.73-41.742a131.1 131.1 0 0 1-12.277-55.739c-.17-55.741 30.609-94.17 64.608-134.488a2610 2610 0 0 1 39.612-46.195c11.019-12.468 31.308-33.441 36.726-48.249-42.882 5.332-81.317-2.354-102.203 46.393-15.817-8.759-40.579-16.442-57.943-22.172-17.045-45.213-13.035-38.171-2.197-84.279 5.877-.832 15.687-.889 21.911-1.094 9.788-5.317 28.298-20.249 31.971-30.675 2.573-7.303 3.381-15.303 8.136-21.676 5.681-7.613 56.373-43.491 66.112-47.313 7.681-3.014 16.598-2.889 24.705-4.14 8.691-1.341 17.363-4.726 25.46-8.054 31.435-12.92 44.348-30.468 63.908-57.107"/>
  <path fill="rgb(85,84,84)" d="M318.974 588.313c-.979-16.702.051-36.64.226-53.659l.127-84.09-.196-62.48c-.094-11.778-1.207-28.362.572-39.627 2.918-18.475 16.817-28.546 34.389-28.731 26.634-.281 52.591-.239 78.93-.196l139.132.145 71.472-.145c11.837-.061 24.897-.772 36.546.216 13.488 1.144 27.085 16.866 27.936 30.224 1.218 19.104.021 38.083-.005 57.206l.326 103.79q.005 24.862.396 49.721c.328 17.679 5.598 27.502-15.348 34.427-4.835 1.598-10.761 3.847-15.645 5.624-3.609.754-7.518 1.493-11.052 2.454-54.962 10.551-112.048 3.451-167.202-3.581-6.397.891-49.251-10.117-61.645-11.263-24.128-2.23-49.696-5.415-74.134-5.511-2.662.268-7.432.903-9.926.966-10.503 1.392-24.612 3.677-34.899 4.51"/>
  <path fill="rgb(158,157,157)" d="M318.974 588.313c-.979-16.702.051-36.64.226-53.659l.127-84.09-.196-62.48c-.094-11.778-1.207-28.362.572-39.627 2.918-18.475 16.817-28.546 34.389-28.731 26.634-.281 52.591-.239 78.93-.196l139.132.145 71.472-.145c11.837-.061 24.897-.772 36.546.216 13.488 1.144 27.085 16.866 27.936 30.224 1.218 19.104.021 38.083-.005 57.206l.326 103.79q.005 24.862.396 49.721c.328 17.679 5.598 27.502-15.348 34.427-4.835 1.598-10.761 3.847-15.645 5.624l-2.205-.948c-1.043-2.966-.4-37.865-.489-43.985-.773-53.209 1.209-106.463.099-159.624-.332-15.885.832-32.555-.063-48.213-14.525-1.806-46.134-1.035-61.778-1.035l-113.267.107-87.453.005c-16.154-.078-43.511-1.253-58.597 1.526-3.241 6.3-1.676 214.625-.206 235.232-10.503 1.392-24.612 3.677-34.899 4.51"/>
  <path fill="url(#a)" d="M495.668 538.153c53.173-.926 116.88-1.688 170.058.129.077 17.133-.642 48.972 1.054 64.91-54.962 10.551-112.048 3.451-167.202-3.581-6.397.891-49.251-10.117-61.645-11.263-24.128-2.23-49.696-5.415-74.134-5.511l-.212-.771c-1.733-6.642-.757-35.055-.617-43.073 13.128-1.422 35.473-.861 49.362-.885z"/>
  <path fill="url(#b)" d="M362.97 538.993c13.128-1.422 35.473-.861 49.362-.885l83.336.045c15.868 1.204 26.829.37 42.349.632.714 5.261 1.747 11.608 2.141 16.799-6.444.748-27.756.905-30.7 6.338 2.072 1.071 2.15 1.102 4.494 1.274-14.647 2.226-36.138-.64-51.435 1.015-26.411.38-50.739-.686-77.239 1.058-.602 5.478-1.435 11.561-1.453 17.022-6.528-.078-13.776-.332-20.238-.225-1.733-6.642-.757-35.055-.617-43.073"/>
  <path fill="rgb(85,84,84)" d="M385.278 565.269c26.5-1.744 50.828-.678 77.239-1.058 25.021 1.466 50.145.105 76.725 1.762q-.042 13.931-.382 27.859c-13.234-.408-33.777-1.695-46.181 2.895 1.848.643 5.734 1.696 6.899 2.884-6.397.891-49.251-10.117-61.645-11.263-24.128-2.23-49.696-5.415-74.134-5.511l-.212-.771c6.462-.107 13.71.147 20.238.225.018-5.461.851-11.544 1.453-17.022m233.756.307c6.702.538 17.701.353 24.737.464.38 8.784.276 18.092.32 26.923l-24.95.243z"/>
  <path fill="rgb(158,157,157)" d="M415.42 449.139c44.907-2.041 99.93.2 145.118.537 30.864.23 75.087-1.611 104.485.489 1.622 28.003 1.156 51.301.482 79.406-18.201-1.036-48.234.248-67.736.24l-138.826-.167c-30.974 0-65.187.651-95.914-1.095-1.866-18.898-1.286-54.58-.143-73.793-.053-2.377-.012-2.478.793-4.742 4.891-2.243 43.748-.984 51.741-.875"/>
  <path fill="rgb(192,190,190)" d="M362.886 454.756c-.053-2.377-.012-2.478.793-4.742 4.891-2.243 43.748-.984 51.741-.875q.374.096.75.188c15.003 3.559 119.707-2.502 122.818 2.255 1.024 1.564.681 4.706.683 6.552-3.5 4.716-127.956 1.483-143.752 2.794-3.315.275-27.709 1.235-30.41.458-1.932-2.315-2.018-3.745-2.623-6.63"/>
  <path fill="rgb(85,84,84)" d="M384.78 473.769q77.535.61 155.069.194c-.294 8.366-.278 17.041-.372 25.436-5.124 1.198-37.722.72-45.326.719l-110.052-.275c-.111-9.463-.163-16.57.681-26.074m234.124.369c8.949.006 16.183.212 25.102.845l-.06 24.897c-8.248 1.148-16.594.92-24.921.897-.378-8.623-.162-17.955-.121-26.639"/>
  <path fill="rgb(158,157,157)" d="M368.744 355.911c10.778-1.402 28.575-1.076 39.687-1.077l61.168.052 197.267-.716c-1.269 10.332-.609 23.949-.617 34.616a808 808 0 0 1-1.281 46.163q-84.5.522-168.999-.197c-42.511.029-90.656 1.421-132.633.296-.441-8.928-2.727-57.152-.534-65.331.126-4.284-.974-7.219.04-11.72 2.299-2.562 1.501-1.802 5.902-2.086"/>
  <path fill="rgb(192,190,190)" d="M362.802 369.717c.126-4.284-.974-7.219.04-11.72 2.299-2.562 1.501-1.802 5.902-2.086 9.498.55 19.482.502 29.03.4 43.937-.473 87.744 1.958 131.654-.15 2.919-.14 4.861-.031 7.29 1.448 1.926 4.251 2.022 5.227 2.523 9.914-2.159 3.611-6.507 3.371-10.509 3.358-54.827-.176-111.274 2.07-165.93-1.164"/>
  <path fill="rgb(85,84,84)" d="M384.068 383.995c46.263 2.102 108.676 1.701 155.001.168.295 8.288.066 17.399.02 25.754-50.967.016-104.29.798-155.067-.236-.252-8.875-.179-16.804.046-25.686m234.884.38c8.185-.374 16.928-.239 25.166-.249l-.104 25.792c-8.197.137-16.78-.011-25.011-.026-.313-8.428-.13-17.067-.051-25.517"/>
  <path fill="url(#c)" d="M536.865 116.066c15.359 4.382 31.28 6.709 46.856 10.578 82.223 20.422 175.215 67.616 219.182 142.923 24.588 42.112 39.88 106.485 39.255 154.598-12.62-10.775-33.067-30.089-47.513-35.71-6.571.672-37.947 9.25-38.701 8.951l1.001-3.97c.254-2.36.328-4.737.221-7.109-1.836-38.34-21.908-97.445-42.79-129.331-14.024-21.414-117.699-113.68-140.082-112.46-.593 2.954 3.159 16.597 3.729 21.104 4.443 35.123 5.708 76.647-18.877 105.249-9.42 10.96-27.793 25.943-40.933 31.552l-.942.394c-.894-2.673-1.92-7.09-2.682-9.947 20.658-17.322 43.779-35.999 45.774-63.798 3.224-44.91-3.949-73.417-23.498-113.024"/>
  <path fill="rgb(75,168,84)" d="m340.364 133.506 2.458-.975c1.436 1.857 1.764 12.802 4.851 18.981 3.594 2.32 8.401 4.732 9.969 8.52.17 7.189-4.289 3.716-1.933 9.031 5.793 3.409 22.397-3.58 30.623-1.469 11.937 3.064 22.441 8.335 33.51 13.614-2.642 2.702-5.821 6.145-8.666 8.521 4.676 3.09 33.211 21.921 34.43 24.922l-.461.57c-1.571 1.967-1.884 2.181-2.631 4.498 1.075 3.833 7.172 19.208 9.103 23.501 10.292 22.885 10.891 37.242 10.58 62.449-19.334-.866-39.514.53-59.119-.169 1.636-32.913-3.175-51.194-22.678-78.891-5.571-7.912-13.18-17.431-17.048-26.12-1.045 12.958-.538 25.729-1.518 37.472-11.718 5.24-25.995 16.299-36.667 19.164-9.756 2.619-28.872 3.802-39.684 4.756-22.96 2.025-49.51 17.617-62.66 36.452-8.937-4.536-32.597-9.72-35.463-16.175-3.969-11.795-1.996-28.808-.235-40.803a72 72 0 0 0 2.273-.2c16.447-1.737 45.723-25.625 55.686-37.84.997-4.151 2.179-17.827 4.285-20.485 10.179-12.849 44.032-36.982 58.58-43.401 3.307-1.459 23.907-3.223 31.469-5.618z"/>
  <path fill="rgb(111,202,102)" d="M340.364 133.506c3.494 2.786 2.651 7.485 3.102 11.995-27.985 2.002-34.978 7.145-57.766 22.925-26.113 18.083-22.298 13.395-29.479 41.718-9.559 9.837-18.189 16.596-29.105 24.841-4.162 3.143-12.42 9.126-15.777 12.694-6.1 3.142-8.586 4.023-11.937 10.209-7.634 9.178-3.55 19.395-12.042 24.27-3.969-11.795-1.996-28.808-.235-40.803a72 72 0 0 0 2.273-.2c16.447-1.737 45.723-25.625 55.686-37.84.997-4.151 2.179-17.827 4.285-20.485 10.179-12.849 44.032-36.982 58.58-43.401 3.307-1.459 23.907-3.223 31.469-5.618z"/>
  <path fill="rgb(5,111,51)" d="M211.339 247.679c2.732 1.6 5.019 2.513 5.981 5.538.23 7.899-8.308 16.206-15.983 11.241-1.273-2.898-1.513-3.404-1.935-6.57 3.351-6.186 5.837-7.067 11.937-10.209m93.063-71.224.698.109c1.057 4.074-4.943 21.261-6.632 26.548-9.91 2.822-20.148 4.87-30.232 7.028l-1.529-.192-.561-1.281c13.073-19.681 15.5-23.632 38.256-32.212"/>
  <path fill="url(#d)" d="M225.116 696.919c17.489-35.225 54.078-72.292 91.863-85.018a167.8 167.8 0 0 1 46.923-8.34c52.04-1.871 120.834 15.349 173.586 20.73 29.999 3.059 62.935 5.642 93.005 4.48-5.502 6.664-12.055 15.103-18.376 20.743-5.574-3.5-32.739-5.873-39.255-3.839l-3.421.316c-13.794.174-38.607-1.774-51.487-4.493-2.611-2.695-4.859-5.037-7.692-7.5-13.818-2.567-15.592-1.969-25.305 8.466-16.229-7.436-63.546-9.824-82.835-11.202-8.492-.607-25.687 2.142-31.054-.42 2.762-2.934 7.781-7.187 8.289-10.821-9.186-9.829-27.267 11.959-34.206 17.852 5.553 8.285 13.193 17.086 21.231 23.05-7.212 7.999-13.905 14.878-19.536 24.163l10.347 11.802c-42.427.271-90.38-1.175-132.077.031"/>
  <path fill="rgb(75,168,84)" d="M766.521 573.749c5.339-9.092 12.914-21.351 16.723-30.874 12.991 37.427 19.53 64.092 2.352 103.82-1.542 3.565-3.524 5.944-6.865 7.904-6.795 2.092-25.726-11.207-30.908-16.104 5.622-19.485 10.026-20.914 16.603-37.129-12.906 8.409-43.271 30.004-32.908 50.121 3.81 7.396 27.697 14.028 36.547 16.81-20.365 16.664-41.862 28.425-70.101 28.232-1.871-.013-3.654-.993-5.116-2.151-3.939-9.052 9.464-21.408 15.227-27.701-4.483-.419-11.728-1.295-16.053-1.428-6.03 4.801-13.424 12.479-16.43 19.657-2.408 5.75-1.67 11.002-9.682 11.567-11.425.94-23.022.266-34.475.535 5.216-6.993 10.819-14.837 16.41-21.439-6.335-6.656-14.873-15.594-22.252-21.062 2.108-2.405 11.658-13.411 13.709-14.729 21.685-25.989 53.981-8.69 85.807-45.892 11.005-14.302 12.548-17.365 14.471-35.51 9.414 8.959 14.221 12.059 26.941 15.373"/>
  <path fill="rgb(111,202,102)" d="M725.109 593.886c3.726 2.311 3.288 1.34 5.17 4.85.995 23.446-80.665 54.476-90.977 41.042 21.685-25.989 53.981-8.69 85.807-45.892"/>
  <path fill="rgb(75,168,84)" d="M617.176 202c57.318 39.112 96.995 70.63 120.436 137.974 5.316 15.271 10.431 40.318 18.871 52.789l.462.673-1.001 3.97c-4.195-5.41-27.124-27.176-32.711-30.623-.815-16.74-2.86-36.132-16.199-47.842-18.619-16.344-38.202-13.923-60.501-13.107-7.691-49.605-1.324-56.912-29.357-103.834m-246.108 428.842c5.367 2.562 22.562-.187 31.054.42 19.289 1.378 66.606 3.766 82.835 11.202-2.946 4.197-7.301 9.026-10.694 13.005 6.836 10.254 9.976 12.615 19.802 20.523-5.478 6.655-11.886 14.054-16.503 21.217l-27.415-.348c-4.489-5.97-17.923-21.455-20.297-25.882-.385-6.646 12.971-18.253 18.718-26.784-23.707 4.236-26.56 7.422-40.795 26.843 6.489 8.681 19.138 19.764 28.055 25.797-5.855.078-11.869.288-17.729.231-24.665-.237-34.866 5.153-50.702-17.24 6.325-7.808 13.364-14.307 19.725-21.986-6.017-5.942-14.095-12.874-20.46-18.727zm-96.116-138.805c.852.946 2.718 10.103 3.427 12.562 2.953 10.247 5.275 17.469 10.024 27.003-8.464 9.335-16.923 19.306-25.214 28.844-11.824-4.254-22.017-4.962-34.41-7.379-6.496-18.371-8.409-29.847-10.242-49.275 6.549 1.919 20.433 9.547 25.293 8.789 7.131-1.113 24.858-15.991 31.122-20.544m329.142-263.263c11.851 8.234 29.619 62.513 36.299 77.011-11.243-.969-27.637-.261-39.375-.044-13.822.056-25.918.097-39.687-.837 31.418-25.196 32.342-40.744 42.763-76.13m-93.832 405.224c2.833 2.463 5.081 4.805 7.692 7.5 12.88 2.719 37.693 4.667 51.487 4.493-13.947 3.061-20.618 13.64-29.048 24.417 9.767 8.604 17.436 17.96 28.325 26.461-22.526.743-49.134.113-72.017.148 18.078-25.908 24.587-17.787-2.121-42.521 4.04-4.907 13.77-15.514 15.682-20.498"/>
  <path fill="rgb(111,202,102)" d="m287.002 434.119.651 1.337c-4.175 12.8-7.849 31.179-10.562 43.726-8.493 2.232-25.918 12.353-33.121 17.558-7.472-3.413-15.717-6.507-23.402-9.543-1.419-5.433 14.19-40.673 17.575-48.421 6.7 3.081 10.348 3.793 15.19 9.226 10.604-5.155 22.622-8.748 33.669-13.883"/>
  <path fill="rgb(75,168,84)" d="M572.862 645.675c6.516-2.034 33.681.339 39.255 3.839-2.099 2.213-3.044 2.885-3.424 5.995 1.766 8.387 11.884 16.034 18.658 21.068-6.516 7.43-10.882 13.531-18.208 20.768a976 976 0 0 1-27.106-.922c-4.594-8.625-14.752-20.357-22.021-26.841 4.267-4.911 18.44-17.091 16.313-23.093zm156.781-158.45c13.009 4.679 38.373 30.685 46.129 43.972-3.276 5.916-11.184 21.517-16.411 24.268l-1.926-.817c-3.737-3.726-12.376-13.266-16.676-14.894-4.801 1.365-7.121 12.837-12.675 20.847.131-9.701.948-19.818 1.159-29.74.283-13.289-1.099-30.881.4-43.636m-433.997 49.474 1.613 1.689c2.296 7.422 1.519 48.425 1.143 58.293-6.249 4.06-14.067 6.765-21.328 11.548a579 579 0 0 1-20.059-17.544c-3.973-3.725-14.118-12.812-13.878-18.117 4.509-2.449 14.809 2.386 19.55 4.121 16.296-7.847 23.036-25.534 32.959-39.99"/>
  <path fill="rgb(111,202,102)" d="M284.818 378.534c12.203 5.683 3.222 4.563 19.054 5.931 6.8 7.559-4.22 25.659-9.21 32.691-9.752 3.743-16.358 5.459-26.437 8.137-4.277 1.292-16.623 4.028-18.709-.848 2.355-7.685 28.712-39.158 35.302-45.911"/>
  <path fill="url(#e)" d="m404.498 93.795 1.014 1.082c-1.99 18.872-20.558 46.93-37.311 55.886l-8.477-5.208c-7.792-5.397-11.062-17.995.824-21.451 19.127-5.561 29.24-18.504 43.95-30.31"/>
  <path fill="rgb(111,202,102)" d="M384.575 279.637c2.738 3.219 1.505 20.308 1.38 25.749-12.114.55-25.561-.148-37.774-.517-1.382-.78-1.664-2.144-2.299-3.69l1.189-1.935c4.946-3.115 14.095-1.871 19.758-1.187 8.985-6.666 11.285-9.533 17.746-18.42"/>
  <path fill="rgb(75,168,84)" d="M375.841 249.908c8.509 8.845-10.574 26.261-18.315 30.585a14.05 14.05 0 0 1-2.473-10.193c1.154-8.186 13.819-15.236 20.788-20.392m-80.329 210.617c.511.242 1.487 1.138 1.976 1.549 1.367 10.305 3.505 31.414.748 41.38l-2.36 1.124c-8.991-12.749-5.168-30.328-.364-44.053"/>
  <path fill="rgb(111,202,102)" d="M497.353 305.159c5.718-3.743 11.663-8.226 17.236-12.271.762 2.857 1.788 7.274 2.682 9.947-5.258 2.511-14.023 2.24-19.918 2.324m-196.252 47.951c1.931.54 1.856.624 3.392 2.007 1.325 5.115.634 10.116-1.627 14.862-2.306-1.133-2.684-1.281-4.238-3.306-1.081-4.214 1.11-9.266 2.473-13.563"/>
<path
  fill="rgb(84,84,84)"
  fill-rule="evenodd"
  d="M158.132 773.483c15.318-.892 34.284.078 49.872-.206 22.71-.289 47.938 4.5 64.067 22.034 27.063 29.418 24.269 77.209-3.761 104.415-29.85 25.593-75.346 19.313-114.407 19.009-.005-14.824-1.373-140.986 1.092-144.879z
     M188.715 801.525c18.433 2.237 40.401-3.878 55.585 11.204 17.52 17.403 15.953 48.376-.125 65.707-16.502 14.076-35.729 11.549-56.404 11.222-.179-11.63-.923-81.643.944-88.133z"/>
<path
  fill="rgb(84,84,84)"
  fill-rule="evenodd"
  d="M320.359 773.388c24.023-.115 50.816-1.53 74.312 2.082 28.946 4.45 45.952 32.441 39.702 60.305-3.592 16.013-13.571 25.351-26.57 33.833 10.583 16.225 20.792 33.12 31.577 49.12-7.917.196-16.17.115-24.117.153l-12.919-.149c-7.064-12.521-19.045-31.506-27.51-43.003-8.224-1.042-18.215-.65-26.636-.557l-.336 43.631c-10.801.218-22.18-.038-33.025-.108-.198-13.918-1.056-141.238 1.161-144.695z
     M348.195 801.634c17.497 1.552 49.225-6.397 53.249 18.92 1.234 7.764-1.272 13.739-5.795 19.935-10.538 9.034-33.823 6.707-47.669 6.538q-.007-22.697.215-45.393z"/>
<path
  fill="rgb(84,84,84)"
  fill-rule="evenodd"
  d="M516.422 773.395c9.395-.221 18.539.074 27.92.329 5.758 17.134 18.491 44.771 25.996 62.025 11.751 27.014 23.529 56.344 35.836 82.851-11.713.375-24.064.151-35.827.124-3.024-9.641-8.532-21.952-12.494-31.497l-16.603-.373q-22.985-.083-45.969.076l-13.5 32.171c-10.951-.196-22.123-.163-33.094-.241 5.182-16.997 14.416-37.153 21.495-53.761a3859 3859 0 0 0 37.756-89.948c2.292-1.912 5.298-1.593 8.484-1.756z
     M525.066 810.255c4.908 3.566 18.026 40.446 21.24 48.876l-19.556.057-19.843-.143c3.587-14.384 13.567-33.494 18.159-48.79z"/>
  <path fill="rgb(84,84,84)" d="M811.705 771.398c17.72-2.824 40.907 3.266 56.526 12.079-2.362 10.089-6.049 17.814-10.086 27.29-12.935-7.79-24.228-11.831-39.39-12.083-9.271-.154-26.516 3.516-25.426 15.419 1.47 16.045 37.514 17.555 49.472 23.326 8.073 3.896 14.889 5.317 21.474 12.398 15.843 14.967 13.003 41.193-1.896 55.986-13.804 13.707-32.331 15.075-50.746 15.183-21.858-.441-37.399-6.711-55.42-18.062 4.405-7.183 9.434-17.823 13.352-25.535 14.296 9.113 29.361 15.588 46.408 15.908 8.802.166 27.964-4.671 25.034-15.449-5.853-21.526-51.192-16.865-67.011-32.733-7.655-7.678-12.089-11.314-13.409-22.861-3.169-33.41 21.454-47.512 51.118-50.866m-132.105-.026a90 90 0 0 1 9.297-.441c24.46.125 38.764 8.147 55.542 25.165-5.748 5.583-15.936 15.476-20.376 21.588-8.153-8.742-18.839-15.546-31.46-17.256-42.931-5.815-62.527 46.558-37.431 76.434 20.407 24.293 47.535 16.445 69.285-2.654 6.025 6.843 13.832 13.901 20.709 19.862-12.832 14.75-26.265 23.606-45.994 26.225-28.288 4.233-64.004-7.337-78.079-34.382-27.429-52.703-.117-107.437 58.507-114.541"/>
</svg>
